# xmcd
#
# Track frame offsets:
#	150
#	19220
#	41383
#	62086
#	80918
#	98692
#	114068
#	130587
#	152610
#	169650
#	185105
#	205266
#	223856
#	244164
#	271542
#	285346
#	305680
#	322490
#
# Disc length: 4535 seconds
#
# Revision: 0
# Processed by: cddbd v1.5.2PL0 Copyright (c) Steve Scherf et al.
# Submitted via: EasyCDDAExtractor 10.0.5.1
#
DISCID=fd11b512
DTITLE=Various Artist - 情．深．緣 2 - 至愛動人回憶CD1
DYEAR=2004
DGENRE=Oldies
TTITLE0=陳少華 - 九月九的酒
TTITLE1=陳星 - 流浪歌
TTITLE2=李娜 - 好人一生平安
TTITLE3=李琛 - 窗外
TTITLE4=林良樂 - 冷井情深
TTITLE5=江蕙 - 安平追想曲
TTITLE6=韓寶儀 - 粉紅色的回憶
TTITLE7=梁雁翎 - 真心對我
TTITLE8=蔡琴 - 就這樣咏嘆一段美麗的愛情
TTITLE9=潘安邦 - 爸爸的草鞋
TTITLE10=千百惠 - 明知道你不再愛我
TTITLE11=陳淑樺 - 紅樓夢
TTITLE12=宋祖英 - 你是我歸鄉的路
TTITLE13=群星 - 今又龍年
TTITLE14=甄妮 - 為甚麼
TTITLE15=王虹 - 命運
TTITLE16=林良樂 - 擁有之後
TTITLE17=劉家昌 - 我找到自己
EXTD=
EXTT0=
EXTT1=
EXTT2=
EXTT3=
EXTT4=
EXTT5=
EXTT6=
EXTT7=
EXTT8=
EXTT9=
EXTT10=
EXTT11=
EXTT12=
EXTT13=
EXTT14=
EXTT15=
EXTT16=
EXTT17=
PLAYORDER=
